# Blender v3.0.1 OBJ File: 'bench.blend'
# www.blender.org
mtllib bench.mtl
o Cube
v 2.949612 2.064000 -1.000000
v 2.949612 1.936000 -1.000000
v 2.949612 2.064000 1.000000
v 2.949612 1.936000 1.000000
v -2.976128 2.064000 -1.000000
v -2.976128 1.936000 -1.000000
v -2.976128 2.064000 1.000000
v -2.976128 1.936000 1.000000
v -0.800000 1.936000 -1.000000
v -0.800000 2.064000 1.000000
v 0.832836 1.936000 1.000000
v -0.800000 2.064000 -1.000000
v 0.820000 1.936000 1.000000
v 0.820000 2.064000 -1.000000
v -0.805746 1.936000 -1.000000
v 0.820000 2.064000 1.000000
v -2.976128 1.936000 0.800000
v 2.949612 2.064000 0.800000
v -2.976128 2.064000 0.800000
v 2.949612 1.936000 0.800000
v 0.832836 1.936000 0.800000
v -0.800000 2.064000 0.800000
v 0.820000 2.064000 0.800000
v 0.820000 1.936000 0.800000
v -2.976128 2.064000 -0.820000
v 2.949612 1.936000 -0.820000
v -2.976128 1.936000 -0.820000
v 2.949612 2.064000 -0.820000
v -0.800000 1.936000 -0.820000
v -0.800000 2.064000 -0.820000
v 0.820000 2.064000 -0.820000
v -0.805746 1.936000 -0.820000
v -2.976128 0.103114 0.800000
v -2.976128 0.103114 1.000000
v -0.800000 0.103114 -1.000000
v -2.976128 0.103114 -1.000000
v 0.820000 0.103114 1.000000
v 2.949612 0.103114 1.000000
v 2.949612 0.103114 -0.820000
v 2.949612 0.103114 -1.000000
v 0.832836 0.103114 1.000000
v 0.832836 0.103114 0.800000
v -0.805746 0.103114 -1.000000
v 0.820000 0.103114 0.800000
v 2.949612 0.103114 0.800000
v -2.976128 0.103114 -0.820000
v -0.800000 0.103114 -0.820000
v -0.805746 0.103114 -0.820000
v -0.800000 2.064000 1.000000
v -2.976128 2.064000 1.000000
v 2.949612 2.064000 0.800000
v 2.949612 2.064000 1.000000
v 0.820000 2.064000 1.000000
v -0.800000 2.064000 0.800000
v 0.820000 2.064000 0.800000
v -2.976128 2.064000 0.800000
v -0.800000 4.112368 1.000000
v -2.976128 4.112368 1.000000
v 2.949612 4.112368 0.800000
v 2.949612 4.112368 1.000000
v 0.820000 4.112368 1.000000
v -0.800000 4.112368 0.800000
v 0.820000 4.112368 0.800000
v -2.976128 4.112368 0.800000
vt 0.625000 0.772500
vt 0.625000 0.750000
vt 0.625000 0.750000
vt 0.625000 0.772500
vt 0.625000 0.975000
vt 0.625000 1.000000
vt 0.375000 1.000000
vt 0.375000 0.975000
vt 0.375000 0.772500
vt 0.375000 0.750000
vt 0.375000 0.250000
vt 0.375000 0.275000
vt 0.375000 0.275000
vt 0.375000 0.250000
vt 0.625000 0.250000
vt 0.625000 0.275000
vt 0.375000 0.772500
vt 0.375000 0.750000
vt 0.647500 0.725000
vt 0.850000 0.725000
vt 0.850000 0.725000
vt 0.647500 0.725000
vt 0.625000 0.725000
vt 0.625000 0.725000
vt 0.150000 0.725000
vt 0.352500 0.725000
vt 0.352500 0.750000
vt 0.150000 0.750000
vt 0.150000 0.522500
vt 0.352500 0.522500
vt 0.625000 0.522500
vt 0.647500 0.522500
vt 0.850000 0.522500
vt 0.125000 0.522500
vt 0.125000 0.725000
vt 0.375000 0.522500
vt 0.375000 0.522500
vt 0.375000 0.500000
vt 0.375000 0.500000
vt 0.625000 0.500000
vt 0.375000 0.725000
vt 0.375000 0.725000
vt 0.875000 0.522500
vt 0.875000 0.725000
vt 0.850000 0.500000
vt 0.875000 0.500000
vt 0.625000 0.025000
vt 0.625000 0.227500
vt 0.375000 0.227500
vt 0.375000 0.227500
vt 0.375000 0.025000
vt 0.375000 0.025000
vt 0.375000 0.000000
vt 0.375000 0.000000
vt 0.625000 0.000000
vt 0.375000 0.477500
vt 0.375000 0.477500
vt 0.647500 0.500000
vt 0.150000 0.500000
vt 0.352500 0.500000
vt 0.352500 0.725000
vt 0.352500 0.750000
vt 0.125000 0.725000
vt 0.150000 0.725000
vt 0.150000 0.750000
vt 0.125000 0.750000
vt 0.352500 0.500000
vt 0.352500 0.522500
vt 0.125000 0.500000
vt 0.150000 0.500000
vt 0.150000 0.522500
vt 0.125000 0.522500
vt 0.375000 1.000000
vt 0.375000 0.975000
vt 0.625000 0.025000
vt 0.625000 0.000000
vt 0.625000 0.000000
vt 0.625000 0.025000
vt 0.850000 0.725000
vt 0.647500 0.725000
vt 0.625000 0.725000
vt 0.625000 0.750000
vt 0.875000 0.725000
vt 0.625000 0.975000
vt 0.625000 1.000000
vt 0.875000 0.725000
vt 0.875000 0.750000
vt 0.850000 0.750000
vt 0.647500 0.750000
vt 0.625000 0.772500
vt 0.625000 0.975000
vt 0.625000 1.000000
vt 0.625000 0.477500
vn 0.0000 0.0000 1.0000
vn 0.0000 0.0000 -1.0000
vn 0.0000 1.0000 0.0000
vn 0.0000 -1.0000 -0.0000
vn 1.0000 0.0000 0.0000
vn -1.0000 0.0000 0.0000
usemtl None
s off
f 16/1/1 3/2/1 52/3/1 53/4/1
f 16/1/1 10/5/1 7/6/1 8/7/1 11/8/1 13/9/1 4/10/1 3/2/1
f 6/11/2 9/12/2 35/13/2 36/14/2
f 6/11/2 5/15/2 12/16/2 9/12/2
f 4/10/1 13/9/1 37/17/1 38/18/1
f 23/19/1 22/20/1 54/21/1 55/22/1
f 3/2/1 18/23/1 51/24/1 52/3/1
f 21/25/3 24/26/3 13/27/3 11/28/3
f 29/29/3 32/30/3 24/26/3 21/25/3
f 28/31/3 31/32/3 23/19/3 18/23/3
f 31/32/3 30/33/3 22/20/3 23/19/3
f 27/34/4 29/29/4 21/25/4 17/35/4
f 26/36/5 39/37/5 40/38/5 2/39/5 1/40/5 28/31/5 18/23/5 3/2/5 4/10/5 38/18/5 45/41/5 20/42/5
f 32/30/4 26/36/4 20/42/4 24/26/4
f 30/33/3 25/43/3 19/44/3 22/20/3
f 12/45/3 5/46/3 25/43/3 30/33/3
f 19/47/6 25/48/6 5/15/6 6/11/6 36/14/6 46/49/6 27/50/6 17/51/6 33/52/6 34/53/6 8/54/6 7/55/6
f 15/56/2 2/39/2 40/38/2 43/57/2
f 14/58/3 12/45/3 30/33/3 31/32/3
f 1/40/3 14/58/3 31/32/3 28/31/3
f 9/59/3 15/60/3 32/30/3 29/29/3
f 44/61/4 45/41/4 38/18/4 37/62/4
f 33/63/4 42/64/4 41/65/4 34/66/4
f 43/67/4 40/38/4 39/37/4 48/68/4
f 36/69/4 35/70/4 47/71/4 46/72/4
f 26/36/1 32/30/1 48/68/1 39/37/1
f 17/35/2 21/25/2 42/64/2 33/63/2
f 21/25/5 11/28/5 41/65/5 42/64/5
f 29/29/1 27/34/1 46/72/1 47/71/1
f 9/59/5 29/29/5 47/71/5 35/70/5
f 24/26/2 20/42/2 45/41/2 44/61/2
f 13/27/6 24/26/6 44/61/6 37/62/6
f 32/30/6 15/60/6 43/67/6 48/68/6
f 11/8/1 8/7/1 34/73/1 41/74/1
f 56/75/6 50/76/6 58/77/6 64/78/6
f 55/22/2 54/21/2 62/79/2 63/80/2
f 52/3/5 51/24/5 59/81/5 60/82/5
f 22/20/1 19/44/1 56/83/1 54/21/1
f 19/47/1 7/55/1 50/76/1 56/75/1
f 7/6/1 10/5/1 49/84/1 50/85/1
f 18/23/1 23/19/1 55/22/1 51/24/1
f 10/5/1 16/1/1 53/4/1 49/84/1
f 62/79/3 64/86/3 58/87/3 57/88/3
f 63/80/3 62/79/3 57/88/3 61/89/3
f 59/81/3 63/80/3 61/89/3 60/82/3
f 53/4/1 52/3/1 60/82/1 61/90/1
f 49/84/1 53/4/1 61/90/1 57/91/1
f 50/85/1 49/84/1 57/91/1 58/92/1
f 54/21/2 56/83/2 64/86/2 62/79/2
f 51/24/2 55/22/2 63/80/2 59/81/2
f 9/12/2 12/16/2 14/93/2 1/40/2 2/39/2 15/56/2
