# Blender v3.0.1 OBJ File: 'Gravefloor1.blend'
# www.blender.org
mtllib Gravefloor1.mtl
o Cube.001
v -3.323483 0.009017 1.722530
v -3.323483 0.409017 1.722530
v -3.323483 0.009017 -1.722530
v -3.323483 0.409017 -1.722530
v 3.323483 0.009017 1.722530
v 3.323483 0.409017 1.722530
v 3.323483 0.009017 -1.722530
v 3.323483 0.409017 -1.722530
v 3.606420 0.200000 -2.000000
v 3.606420 -0.200000 -2.000000
v 3.606420 0.200000 2.000000
v 3.606420 -0.200000 2.000000
v -3.606420 0.200000 -2.000000
v -3.606420 -0.200000 -2.000000
v -3.606420 0.200000 2.000000
v -3.606420 -0.200000 2.000000
vt 0.375000 0.000000
vt 0.625000 0.000000
vt 0.625000 0.250000
vt 0.375000 0.250000
vt 0.625000 0.500000
vt 0.375000 0.500000
vt 0.625000 0.750000
vt 0.375000 0.750000
vt 0.625000 1.000000
vt 0.375000 1.000000
vt 0.125000 0.500000
vt 0.125000 0.750000
vt 0.875000 0.500000
vt 0.875000 0.750000
vt 0.625000 0.500000
vt 0.875000 0.500000
vt 0.875000 0.750000
vt 0.625000 0.750000
vt 0.375000 0.750000
vt 0.625000 1.000000
vt 0.375000 1.000000
vt 0.375000 0.000000
vt 0.625000 0.000000
vt 0.625000 0.250000
vt 0.375000 0.250000
vt 0.125000 0.500000
vt 0.375000 0.500000
vt 0.125000 0.750000
vn -0.5773 -0.5773 0.5773
vn -0.5773 0.5773 0.5773
vn -0.5773 0.5773 -0.5773
vn -0.5773 -0.5773 -0.5773
vn 0.5773 0.5773 -0.5773
vn 0.5773 -0.5773 -0.5773
vn 0.5773 0.5773 0.5773
vn 0.5773 -0.5773 0.5773
usemtl Material.001
s 1
f 1/1/1 2/2/2 4/3/3 3/4/4
f 3/4/4 4/3/3 8/5/5 7/6/6
f 7/6/6 8/5/5 6/7/7 5/8/8
f 5/8/8 6/7/7 2/9/2 1/10/1
f 3/11/4 7/6/6 5/8/8 1/12/1
f 8/5/5 4/13/3 2/14/2 6/7/7
usemtl Material
f 9/15/5 13/16/3 15/17/2 11/18/7
f 12/19/8 11/18/7 15/20/2 16/21/1
f 16/22/1 15/23/2 13/24/3 14/25/4
f 14/26/4 10/27/6 12/19/8 16/28/1
f 10/27/6 9/15/5 11/18/7 12/19/8
f 14/25/4 13/24/3 9/15/5 10/27/6
