# Blender v3.0.1 OBJ File: 'Gravefloor4.blend'
# www.blender.org
mtllib Gravefloor4.mtl
o Cube.005
v -3.505564 0.184940 -1.284117
v -3.505564 0.310255 -1.284117
v -3.505564 0.184940 -1.910691
v -3.505564 0.310255 -1.910691
v -2.878990 0.184940 -1.284117
v -2.878990 0.310255 -1.284117
v -2.878990 0.184940 -1.910691
v -2.878990 0.310255 -1.910691
v 3.606419 0.200000 -2.000000
v 3.606419 -0.200000 -2.000000
v 3.606419 0.200000 2.000000
v 3.606419 -0.200000 2.000000
v -3.606420 0.200000 -2.000000
v -3.606420 -0.200000 -2.000000
v -3.606420 0.200000 2.000000
v -3.606420 -0.200000 2.000000
v -3.104382 -0.000992 1.608972
v -3.104382 0.372638 1.608972
v -3.104382 -0.000992 -1.608972
v -3.104382 0.372638 -1.608972
v 3.104381 -0.000992 1.608972
v 3.104381 0.372638 1.608972
v 3.104381 -0.000992 -1.608972
v 3.104381 0.372638 -1.608972
v 2.873654 0.184940 1.910218
v 2.873654 0.310255 1.910218
v 2.873654 0.184940 1.283644
v 2.873654 0.310255 1.283644
v 3.500228 0.184940 1.910218
v 3.500228 0.310255 1.910218
v 3.500228 0.184940 1.283644
v 3.500228 0.310255 1.283644
v 2.873654 0.184940 -1.254658
v 2.873654 0.310255 -1.254658
v 2.873654 0.184940 -1.881232
v 2.873654 0.310255 -1.881232
v 3.500228 0.184940 -1.254658
v 3.500228 0.310255 -1.254658
v 3.500228 0.184940 -1.881232
v 3.500228 0.310255 -1.881232
v -3.505564 0.184940 1.910218
v -3.505564 0.310255 1.910218
v -3.505564 0.184940 1.283644
v -3.505564 0.310255 1.283644
v -2.878990 0.184940 1.910218
v -2.878990 0.310255 1.910218
v -2.878990 0.184940 1.283644
v -2.878990 0.310255 1.283644
v -3.430207 0.312231 -1.321671
v -3.430207 0.411183 -1.321671
v -3.430207 0.312231 -1.816432
v -3.430207 0.411183 -1.816432
v -2.935446 0.312231 -1.321671
v -2.935446 0.411183 -1.321671
v -2.935446 0.312231 -1.816432
v -2.935446 0.411183 -1.816432
v -3.430207 0.312231 1.815959
v -3.430207 0.411183 1.815959
v -3.430207 0.312231 1.321198
v -3.430207 0.411183 1.321198
v -2.935446 0.312231 1.815959
v -2.935446 0.411183 1.815959
v -2.935446 0.312231 1.321198
v -2.935446 0.411183 1.321198
v 2.920659 0.312231 1.815959
v 2.920659 0.411183 1.815959
v 2.920659 0.312231 1.321198
v 2.920659 0.411183 1.321198
v 3.415420 0.312231 1.815959
v 3.415420 0.411183 1.815959
v 3.415420 0.312231 1.321198
v 3.415420 0.411183 1.321198
v 2.920659 0.312231 -1.302770
v 2.920659 0.411183 -1.302770
v 2.920659 0.312231 -1.797531
v 2.920659 0.411183 -1.797531
v 3.415420 0.312231 -1.302770
v 3.415420 0.411183 -1.302770
v 3.415420 0.312231 -1.797531
v 3.415420 0.411183 -1.797531
vt 0.375000 0.000000
vt 0.625000 0.000000
vt 0.625000 0.250000
vt 0.375000 0.250000
vt 0.625000 0.500000
vt 0.375000 0.500000
vt 0.625000 0.750000
vt 0.375000 0.750000
vt 0.625000 1.000000
vt 0.375000 1.000000
vt 0.125000 0.500000
vt 0.125000 0.750000
vt 0.875000 0.500000
vt 0.875000 0.750000
vt 0.375000 0.000000
vt 0.625000 0.000000
vt 0.625000 0.250000
vt 0.375000 0.250000
vt 0.625000 0.500000
vt 0.375000 0.500000
vt 0.625000 0.750000
vt 0.375000 0.750000
vt 0.625000 1.000000
vt 0.375000 1.000000
vt 0.125000 0.500000
vt 0.125000 0.750000
vt 0.875000 0.500000
vt 0.875000 0.750000
vt 0.625000 0.500000
vt 0.875000 0.500000
vt 0.875000 0.750000
vt 0.625000 0.750000
vt 0.375000 0.750000
vt 0.625000 1.000000
vt 0.375000 1.000000
vt 0.375000 0.000000
vt 0.625000 0.000000
vt 0.625000 0.250000
vt 0.375000 0.250000
vt 0.125000 0.500000
vt 0.375000 0.500000
vt 0.125000 0.750000
vt 0.375000 0.000000
vt 0.625000 0.000000
vt 0.625000 0.250000
vt 0.375000 0.250000
vt 0.625000 0.500000
vt 0.375000 0.500000
vt 0.625000 0.750000
vt 0.375000 0.750000
vt 0.625000 1.000000
vt 0.375000 1.000000
vt 0.125000 0.500000
vt 0.125000 0.750000
vt 0.875000 0.500000
vt 0.875000 0.750000
vt 0.375000 0.000000
vt 0.625000 0.000000
vt 0.625000 0.250000
vt 0.375000 0.250000
vt 0.625000 0.500000
vt 0.375000 0.500000
vt 0.625000 0.750000
vt 0.375000 0.750000
vt 0.625000 1.000000
vt 0.375000 1.000000
vt 0.125000 0.500000
vt 0.125000 0.750000
vt 0.875000 0.500000
vt 0.875000 0.750000
vt 0.375000 0.000000
vt 0.625000 0.000000
vt 0.625000 0.250000
vt 0.375000 0.250000
vt 0.625000 0.500000
vt 0.375000 0.500000
vt 0.625000 0.750000
vt 0.375000 0.750000
vt 0.625000 1.000000
vt 0.375000 1.000000
vt 0.125000 0.500000
vt 0.125000 0.750000
vt 0.875000 0.500000
vt 0.875000 0.750000
vt 0.375000 0.000000
vt 0.625000 0.000000
vt 0.625000 0.250000
vt 0.375000 0.250000
vt 0.625000 0.500000
vt 0.375000 0.500000
vt 0.625000 0.750000
vt 0.375000 0.750000
vt 0.625000 1.000000
vt 0.375000 1.000000
vt 0.125000 0.500000
vt 0.125000 0.750000
vt 0.875000 0.500000
vt 0.875000 0.750000
vt 0.375000 0.000000
vt 0.625000 0.000000
vt 0.625000 0.250000
vt 0.375000 0.250000
vt 0.625000 0.500000
vt 0.375000 0.500000
vt 0.625000 0.750000
vt 0.375000 0.750000
vt 0.625000 1.000000
vt 0.375000 1.000000
vt 0.125000 0.500000
vt 0.125000 0.750000
vt 0.875000 0.500000
vt 0.875000 0.750000
vt 0.375000 0.000000
vt 0.625000 0.000000
vt 0.625000 0.250000
vt 0.375000 0.250000
vt 0.625000 0.500000
vt 0.375000 0.500000
vt 0.625000 0.750000
vt 0.375000 0.750000
vt 0.625000 1.000000
vt 0.375000 1.000000
vt 0.125000 0.500000
vt 0.125000 0.750000
vt 0.875000 0.500000
vt 0.875000 0.750000
vt 0.375000 0.000000
vt 0.625000 0.000000
vt 0.625000 0.250000
vt 0.375000 0.250000
vt 0.625000 0.500000
vt 0.375000 0.500000
vt 0.625000 0.750000
vt 0.375000 0.750000
vt 0.625000 1.000000
vt 0.375000 1.000000
vt 0.125000 0.500000
vt 0.125000 0.750000
vt 0.875000 0.500000
vt 0.875000 0.750000
vn -1.0000 0.0000 0.0000
vn 0.0000 0.0000 -1.0000
vn 1.0000 0.0000 0.0000
vn 0.0000 0.0000 1.0000
vn 0.0000 -1.0000 0.0000
vn 0.0000 1.0000 0.0000
vn 0.5773 0.5773 -0.5773
vn -0.5773 0.5773 -0.5773
vn -0.5773 0.5773 0.5773
vn 0.5773 0.5773 0.5773
vn 0.5773 -0.5773 0.5773
vn -0.5773 -0.5773 0.5773
vn -0.5773 -0.5773 -0.5773
vn 0.5773 -0.5773 -0.5773
usemtl Material.005
s off
f 1/1/1 2/2/1 4/3/1 3/4/1
f 3/4/2 4/3/2 8/5/2 7/6/2
f 7/6/3 8/5/3 6/7/3 5/8/3
f 5/8/4 6/7/4 2/9/4 1/10/4
f 3/11/5 7/6/5 5/8/5 1/12/5
f 8/5/6 4/13/6 2/14/6 6/7/6
usemtl Material
f 25/15/1 26/16/1 28/17/1 27/18/1
f 27/18/2 28/17/2 32/19/2 31/20/2
f 31/20/3 32/19/3 30/21/3 29/22/3
f 29/22/4 30/21/4 26/23/4 25/24/4
f 27/25/5 31/20/5 29/22/5 25/26/5
f 32/19/6 28/27/6 26/28/6 30/21/6
s 1
f 9/29/7 13/30/8 15/31/9 11/32/10
f 12/33/11 11/32/10 15/34/9 16/35/12
f 16/36/12 15/37/9 13/38/8 14/39/13
f 14/40/13 10/41/14 12/33/11 16/42/12
f 10/41/14 9/29/7 11/32/10 12/33/11
f 14/39/13 13/38/8 9/29/7 10/41/14
usemtl Material.001
f 17/43/12 18/44/9 20/45/8 19/46/13
f 19/46/13 20/45/8 24/47/7 23/48/14
f 23/48/14 24/47/7 22/49/10 21/50/11
f 21/50/11 22/49/10 18/51/9 17/52/12
f 19/53/13 23/48/14 21/50/11 17/54/12
f 24/47/7 20/55/8 18/56/9 22/49/10
usemtl Material.003
s off
f 33/57/1 34/58/1 36/59/1 35/60/1
f 35/60/2 36/59/2 40/61/2 39/62/2
f 39/62/3 40/61/3 38/63/3 37/64/3
f 37/64/4 38/63/4 34/65/4 33/66/4
f 35/67/5 39/62/5 37/64/5 33/68/5
f 40/61/6 36/69/6 34/70/6 38/63/6
usemtl Material.004
f 41/71/1 42/72/1 44/73/1 43/74/1
f 43/74/2 44/73/2 48/75/2 47/76/2
f 47/76/3 48/75/3 46/77/3 45/78/3
f 45/78/4 46/77/4 42/79/4 41/80/4
f 43/81/5 47/76/5 45/78/5 41/82/5
f 48/75/6 44/83/6 42/84/6 46/77/6
usemtl Material.006
f 49/85/1 50/86/1 52/87/1 51/88/1
f 51/88/2 52/87/2 56/89/2 55/90/2
f 55/90/3 56/89/3 54/91/3 53/92/3
f 53/92/4 54/91/4 50/93/4 49/94/4
f 51/95/5 55/90/5 53/92/5 49/96/5
f 56/89/6 52/97/6 50/98/6 54/91/6
usemtl Material.007
f 57/99/1 58/100/1 60/101/1 59/102/1
f 59/102/2 60/101/2 64/103/2 63/104/2
f 63/104/3 64/103/3 62/105/3 61/106/3
f 61/106/4 62/105/4 58/107/4 57/108/4
f 59/109/5 63/104/5 61/106/5 57/110/5
f 64/103/6 60/111/6 58/112/6 62/105/6
usemtl Material.008
f 65/113/1 66/114/1 68/115/1 67/116/1
f 67/116/2 68/115/2 72/117/2 71/118/2
f 71/118/3 72/117/3 70/119/3 69/120/3
f 69/120/4 70/119/4 66/121/4 65/122/4
f 67/123/5 71/118/5 69/120/5 65/124/5
f 72/117/6 68/125/6 66/126/6 70/119/6
usemtl Material.009
f 73/127/1 74/128/1 76/129/1 75/130/1
f 75/130/2 76/129/2 80/131/2 79/132/2
f 79/132/3 80/131/3 78/133/3 77/134/3
f 77/134/4 78/133/4 74/135/4 73/136/4
f 75/137/5 79/132/5 77/134/5 73/138/5
f 80/131/6 76/139/6 74/140/6 78/133/6
