# Blender v3.0.1 OBJ File: 'Gravefloor3.blend'
# www.blender.org
mtllib Gravefloor3.mtl
o Cube
v 3.606420 0.200000 -2.000000
v 3.606420 -0.200000 -2.000000
v 3.606420 0.200000 2.000000
v 3.606420 -0.200000 2.000000
v -3.606420 0.200000 -2.000000
v -3.606420 -0.200000 -2.000000
v -3.606420 0.200000 2.000000
v -3.606420 -0.200000 2.000000
v -2.689060 0.028173 1.462597
v -2.689060 0.462961 1.462597
v -2.689060 0.028173 -1.462597
v -2.689060 0.462961 -1.462597
v 2.720770 0.028173 1.462597
v 2.720770 0.462961 1.462597
v 2.720770 0.028173 -1.462597
v 2.720770 0.462961 -1.462597
v -3.189338 -0.149815 1.733106
v -3.189338 0.365388 1.733106
v -3.189338 -0.149815 -1.733106
v -3.189338 0.365388 -1.733106
v 3.221048 -0.149815 1.733106
v 3.221048 0.365388 1.733106
v 3.221048 -0.149815 -1.733106
v 3.221048 0.365388 -1.733106
vt 0.625000 0.500000
vt 0.875000 0.500000
vt 0.875000 0.750000
vt 0.625000 0.750000
vt 0.375000 0.750000
vt 0.625000 1.000000
vt 0.375000 1.000000
vt 0.375000 0.000000
vt 0.625000 0.000000
vt 0.625000 0.250000
vt 0.375000 0.250000
vt 0.125000 0.500000
vt 0.375000 0.500000
vt 0.125000 0.750000
vt 0.375000 0.000000
vt 0.625000 0.000000
vt 0.625000 0.250000
vt 0.375000 0.250000
vt 0.625000 0.500000
vt 0.375000 0.500000
vt 0.625000 0.750000
vt 0.375000 0.750000
vt 0.625000 1.000000
vt 0.375000 1.000000
vt 0.125000 0.500000
vt 0.125000 0.750000
vt 0.875000 0.500000
vt 0.875000 0.750000
vt 0.375000 0.000000
vt 0.625000 0.000000
vt 0.625000 0.250000
vt 0.375000 0.250000
vt 0.625000 0.500000
vt 0.375000 0.500000
vt 0.625000 0.750000
vt 0.375000 0.750000
vt 0.625000 1.000000
vt 0.375000 1.000000
vt 0.125000 0.500000
vt 0.125000 0.750000
vt 0.875000 0.500000
vt 0.875000 0.750000
vn 0.5773 0.5773 -0.5773
vn -0.5773 0.5773 -0.5773
vn -0.5773 0.5773 0.5773
vn 0.5773 0.5773 0.5773
vn 0.5773 -0.5773 0.5773
vn -0.5773 -0.5773 0.5773
vn -0.5773 -0.5773 -0.5773
vn 0.5773 -0.5773 -0.5773
usemtl Material
s 1
f 1/1/1 5/2/2 7/3/3 3/4/4
f 4/5/5 3/4/4 7/6/3 8/7/6
f 8/8/6 7/9/3 5/10/2 6/11/7
f 6/12/7 2/13/8 4/5/5 8/14/6
f 2/13/8 1/1/1 3/4/4 4/5/5
f 6/11/7 5/10/2 1/1/1 2/13/8
usemtl Material.001
f 9/15/6 10/16/3 12/17/2 11/18/7
f 11/18/7 12/17/2 16/19/1 15/20/8
f 15/20/8 16/19/1 14/21/4 13/22/5
f 13/22/5 14/21/4 10/23/3 9/24/6
f 11/25/7 15/20/8 13/22/5 9/26/6
f 16/19/1 12/27/2 10/28/3 14/21/4
usemtl Material.002
f 17/29/6 18/30/3 20/31/2 19/32/7
f 19/32/7 20/31/2 24/33/1 23/34/8
f 23/34/8 24/33/1 22/35/4 21/36/5
f 21/36/5 22/35/4 18/37/3 17/38/6
f 19/39/7 23/34/8 21/36/5 17/40/6
f 24/33/1 20/41/2 18/42/3 22/35/4
