# Blender v3.0.1 OBJ File: 'Arrow.blend'
# www.blender.org
mtllib Arrow.mtl
o Plane
v 1.152817 1.152817 -0.000000
v 0.000244 -1.152817 0.000000
v -1.152817 1.152817 0.000000
v -0.000244 -1.152817 0.000000
v 1.152817 1.152817 0.380430
v 0.000245 -1.152817 0.380430
v -1.152817 1.152817 0.380430
v -0.000244 -1.152817 0.380430
vt 0.000000 0.000000
vt 1.000000 0.000000
vt 1.000000 1.000000
vt 0.000000 1.000000
vt 0.000000 0.000000
vt 0.000000 1.000000
vt 1.000000 1.000000
vt 1.000000 0.000000
vn -0.0000 -0.0000 -1.0000
vn 0.0000 0.0000 1.0000
vn 0.0000 1.0000 0.0000
vn 0.8945 -0.4471 -0.0000
vn 0.0000 -1.0000 0.0000
vn -0.8945 -0.4471 0.0000
usemtl None
s off
f 1/1/1 2/2/1 4/3/1 3/4/1
f 5/5/2 7/6/2 8/7/2 6/8/2
f 1/1/3 3/4/3 7/6/3 5/5/3
f 2/2/4 1/1/4 5/5/4 6/8/4
f 4/3/5 2/2/5 6/8/5 8/7/5
f 3/4/6 4/3/6 8/7/6 7/6/6
o Plane.001
v 1.136117 1.756792 -0.000040
v 1.136117 1.306926 -0.000040
v -1.140185 1.756792 -0.000040
v -1.140185 1.306926 -0.000040
v 1.136117 1.756792 0.329960
v 1.136117 1.306926 0.329960
v -1.140185 1.756792 0.329960
v -1.140185 1.306926 0.329960
vt 0.000000 0.000000
vt 1.000000 0.000000
vt 1.000000 1.000000
vt 0.000000 1.000000
vt 0.000000 0.000000
vt 0.000000 1.000000
vt 1.000000 1.000000
vt 1.000000 0.000000
vn -0.0000 -0.0000 -1.0000
vn 0.0000 0.0000 1.0000
vn 0.0000 1.0000 0.0000
vn 1.0000 0.0000 0.0000
vn 0.0000 -1.0000 0.0000
vn -1.0000 0.0000 0.0000
usemtl None
s off
f 9/9/7 10/10/7 12/11/7 11/12/7
f 13/13/8 15/14/8 16/15/8 14/16/8
f 9/9/9 11/12/9 15/14/9 13/13/9
f 10/10/10 9/9/10 13/13/10 14/16/10
f 12/11/11 10/10/11 14/16/11 16/15/11
f 11/12/12 12/11/12 16/15/12 15/14/12
o Plane.002_Plane.003
v 1.136117 2.335467 -0.000040
v 1.136117 1.885601 -0.000040
v -1.140185 2.335467 -0.000040
v -1.140185 1.885601 -0.000040
v 1.136117 2.335467 0.329960
v 1.136117 1.885601 0.329960
v -1.140185 2.335467 0.329960
v -1.140185 1.885601 0.329960
vt 0.000000 0.000000
vt 1.000000 0.000000
vt 1.000000 1.000000
vt 0.000000 1.000000
vt 0.000000 0.000000
vt 0.000000 1.000000
vt 1.000000 1.000000
vt 1.000000 0.000000
vn -0.0000 -0.0000 -1.0000
vn 0.0000 0.0000 1.0000
vn 0.0000 1.0000 0.0000
vn 1.0000 0.0000 0.0000
vn 0.0000 -1.0000 0.0000
vn -1.0000 0.0000 0.0000
usemtl None
s off
f 17/17/13 18/18/13 20/19/13 19/20/13
f 21/21/14 23/22/14 24/23/14 22/24/14
f 17/17/15 19/20/15 23/22/15 21/21/15
f 18/18/16 17/17/16 21/21/16 22/24/16
f 20/19/17 18/18/17 22/24/17 24/23/17
f 19/20/18 20/19/18 24/23/18 23/22/18
o Plane.003_Plane.004
v 1.136117 2.889392 -0.000040
v 1.136117 2.439526 -0.000040
v -1.140185 2.889392 -0.000040
v -1.140185 2.439526 -0.000040
v 1.136117 2.889392 0.329960
v 1.136117 2.439526 0.329960
v -1.140185 2.889392 0.329960
v -1.140185 2.439526 0.329960
vt 0.000000 0.000000
vt 1.000000 0.000000
vt 1.000000 1.000000
vt 0.000000 1.000000
vt 0.000000 0.000000
vt 0.000000 1.000000
vt 1.000000 1.000000
vt 1.000000 0.000000
vn -0.0000 -0.0000 -1.0000
vn 0.0000 0.0000 1.0000
vn 0.0000 1.0000 0.0000
vn 1.0000 0.0000 0.0000
vn 0.0000 -1.0000 0.0000
vn -1.0000 0.0000 0.0000
usemtl None
s off
f 25/25/19 26/26/19 28/27/19 27/28/19
f 29/29/20 31/30/20 32/31/20 30/32/20
f 25/25/21 27/28/21 31/30/21 29/29/21
f 26/26/22 25/25/22 29/29/22 30/32/22
f 28/27/23 26/26/23 30/32/23 32/31/23
f 27/28/24 28/27/24 32/31/24 31/30/24
o Plane.004_Plane.005
v 1.136117 5.583584 -0.000040
v 1.136117 3.125421 -0.000040
v -1.140185 5.583584 -0.000040
v -1.140185 3.125421 -0.000040
v 1.136117 5.583584 0.329960
v 1.136117 3.125421 0.329960
v -1.140185 5.583584 0.329960
v -1.140185 3.125421 0.329960
vt 0.000000 0.000000
vt 1.000000 0.000000
vt 1.000000 1.000000
vt 0.000000 1.000000
vt 0.000000 0.000000
vt 0.000000 1.000000
vt 1.000000 1.000000
vt 1.000000 0.000000
vn -0.0000 -0.0000 -1.0000
vn 0.0000 0.0000 1.0000
vn 0.0000 1.0000 0.0000
vn 1.0000 0.0000 0.0000
vn 0.0000 -1.0000 0.0000
vn -1.0000 0.0000 0.0000
usemtl None
s off
f 33/33/25 34/34/25 36/35/25 35/36/25
f 37/37/26 39/38/26 40/39/26 38/40/26
f 33/33/27 35/36/27 39/38/27 37/37/27
f 34/34/28 33/33/28 37/37/28 38/40/28
f 36/35/29 34/34/29 38/40/29 40/39/29
f 35/36/30 36/35/30 40/39/30 39/38/30
